<mxfile host="app.diagrams.net" agent="Mozilla/5.0 (Windows NT 10.0; Win64; x64) AppleWebKit/537.36 (KHTML, like Gecko) Chrome/141.0.0.0 Safari/537.36" version="28.2.7">
  <diagram name="Page-1" id="jbs-_bgeetU0tJNa4PuD">
    <mxGraphModel dx="1042" dy="527" grid="1" gridSize="10" guides="1" tooltips="1" connect="1" arrows="1" fold="1" page="1" pageScale="1" pageWidth="827" pageHeight="1169" math="0" shadow="0">
      <root>
        <mxCell id="0" />
        <mxCell id="1" parent="0" />
        <mxCell id="KkgjwcP4pRAjrubZ3zKh-2" value="Authenticated User&lt;div&gt;&lt;br&gt;&lt;/div&gt;" style="shape=umlActor;verticalLabelPosition=bottom;verticalAlign=top;html=1;outlineConnect=0;" parent="1" vertex="1">
          <mxGeometry x="70" y="190" width="30" height="60" as="geometry" />
        </mxCell>
        <mxCell id="KkgjwcP4pRAjrubZ3zKh-23" style="edgeStyle=orthogonalEdgeStyle;rounded=0;orthogonalLoop=1;jettySize=auto;html=1;exitX=0;exitY=0.5;exitDx=0;exitDy=0;endArrow=none;endFill=0;" parent="1" source="KkgjwcP4pRAjrubZ3zKh-3" target="KkgjwcP4pRAjrubZ3zKh-21" edge="1">
          <mxGeometry relative="1" as="geometry" />
        </mxCell>
        <mxCell id="KkgjwcP4pRAjrubZ3zKh-11" style="edgeStyle=orthogonalEdgeStyle;rounded=0;orthogonalLoop=1;jettySize=auto;html=1;exitX=0;exitY=0.5;exitDx=0;exitDy=0;endArrow=none;endFill=0;" parent="1" source="KkgjwcP4pRAjrubZ3zKh-13" target="KkgjwcP4pRAjrubZ3zKh-2" edge="1">
          <mxGeometry relative="1" as="geometry" />
        </mxCell>
        <mxCell id="KkgjwcP4pRAjrubZ3zKh-12" style="edgeStyle=orthogonalEdgeStyle;rounded=0;orthogonalLoop=1;jettySize=auto;html=1;exitX=1;exitY=0.5;exitDx=0;exitDy=0;endArrow=none;endFill=0;" parent="1" source="KkgjwcP4pRAjrubZ3zKh-13" target="KkgjwcP4pRAjrubZ3zKh-6" edge="1">
          <mxGeometry relative="1" as="geometry" />
        </mxCell>
        <mxCell id="KkgjwcP4pRAjrubZ3zKh-6" value="External Camera" style="shape=umlActor;verticalLabelPosition=bottom;verticalAlign=top;html=1;outlineConnect=0;" parent="1" vertex="1">
          <mxGeometry x="710" y="340" width="30" height="60" as="geometry" />
        </mxCell>
        <mxCell id="KkgjwcP4pRAjrubZ3zKh-17" value="Lemon Health Monitoring System" style="swimlane;whiteSpace=wrap;html=1;" parent="1" vertex="1">
          <mxGeometry x="200" y="10" width="440" height="650" as="geometry">
            <mxRectangle x="200" y="10" width="220" height="30" as="alternateBounds" />
          </mxGeometry>
        </mxCell>
        <mxCell id="KkgjwcP4pRAjrubZ3zKh-13" value="Run Analysis" style="ellipse;whiteSpace=wrap;html=1;" parent="KkgjwcP4pRAjrubZ3zKh-17" vertex="1">
          <mxGeometry x="30" y="550" width="120" height="80" as="geometry" />
        </mxCell>
        <mxCell id="KkgjwcP4pRAjrubZ3zKh-5" value="Upload Photograph and Plant Number" style="ellipse;whiteSpace=wrap;html=1;" parent="KkgjwcP4pRAjrubZ3zKh-17" vertex="1">
          <mxGeometry x="30" y="440" width="120" height="80" as="geometry" />
        </mxCell>
        <mxCell id="KkgjwcP4pRAjrubZ3zKh-15" style="edgeStyle=orthogonalEdgeStyle;rounded=0;orthogonalLoop=1;jettySize=auto;html=1;exitX=0.5;exitY=0;exitDx=0;exitDy=0;entryX=0.5;entryY=1;entryDx=0;entryDy=0;" parent="KkgjwcP4pRAjrubZ3zKh-17" source="KkgjwcP4pRAjrubZ3zKh-13" target="KkgjwcP4pRAjrubZ3zKh-5" edge="1">
          <mxGeometry relative="1" as="geometry" />
        </mxCell>
        <mxCell id="KkgjwcP4pRAjrubZ3zKh-18" value="&amp;lt;&amp;lt; include &amp;gt;&amp;gt;" style="edgeLabel;html=1;align=center;verticalAlign=middle;resizable=0;points=[];" parent="KkgjwcP4pRAjrubZ3zKh-15" vertex="1" connectable="0">
          <mxGeometry x="0.1333" y="-2" relative="1" as="geometry">
            <mxPoint as="offset" />
          </mxGeometry>
        </mxCell>
        <mxCell id="XwYupdd1ft59CAqfEfRu-2" style="edgeStyle=orthogonalEdgeStyle;rounded=0;orthogonalLoop=1;jettySize=auto;html=1;exitX=1;exitY=0.5;exitDx=0;exitDy=0;endArrow=none;endFill=0;" parent="KkgjwcP4pRAjrubZ3zKh-17" source="KkgjwcP4pRAjrubZ3zKh-4" edge="1">
          <mxGeometry relative="1" as="geometry">
            <mxPoint x="490" y="150" as="targetPoint" />
          </mxGeometry>
        </mxCell>
        <mxCell id="KkgjwcP4pRAjrubZ3zKh-4" value="Login Account" style="ellipse;whiteSpace=wrap;html=1;" parent="KkgjwcP4pRAjrubZ3zKh-17" vertex="1">
          <mxGeometry x="150" y="110" width="120" height="80" as="geometry" />
        </mxCell>
        <mxCell id="KkgjwcP4pRAjrubZ3zKh-25" value="Logout Account" style="ellipse;whiteSpace=wrap;html=1;" parent="KkgjwcP4pRAjrubZ3zKh-17" vertex="1">
          <mxGeometry x="40" y="190" width="120" height="80" as="geometry" />
        </mxCell>
        <mxCell id="KkgjwcP4pRAjrubZ3zKh-27" value="View Analysis History" style="ellipse;whiteSpace=wrap;html=1;" parent="KkgjwcP4pRAjrubZ3zKh-17" vertex="1">
          <mxGeometry x="160" y="250" width="120" height="80" as="geometry" />
        </mxCell>
        <mxCell id="KkgjwcP4pRAjrubZ3zKh-29" value="Connect To Account and Plant Number" style="ellipse;whiteSpace=wrap;html=1;" parent="KkgjwcP4pRAjrubZ3zKh-17" vertex="1">
          <mxGeometry x="300" y="250" width="120" height="80" as="geometry" />
        </mxCell>
        <mxCell id="KkgjwcP4pRAjrubZ3zKh-31" value="Change Orchard Settings and Plant Numbers" style="ellipse;whiteSpace=wrap;html=1;" parent="KkgjwcP4pRAjrubZ3zKh-17" vertex="1">
          <mxGeometry x="40" y="310" width="120" height="80" as="geometry" />
        </mxCell>
        <mxCell id="KkgjwcP4pRAjrubZ3zKh-32" value="Change Personal Settings" style="ellipse;whiteSpace=wrap;html=1;" parent="KkgjwcP4pRAjrubZ3zKh-17" vertex="1">
          <mxGeometry x="160" y="360" width="120" height="80" as="geometry" />
        </mxCell>
        <mxCell id="KkgjwcP4pRAjrubZ3zKh-3" value="Create Account" style="ellipse;whiteSpace=wrap;html=1;" parent="KkgjwcP4pRAjrubZ3zKh-17" vertex="1">
          <mxGeometry x="40" y="30" width="120" height="80" as="geometry" />
        </mxCell>
        <mxCell id="XwYupdd1ft59CAqfEfRu-3" value="Manage Accounts" style="ellipse;whiteSpace=wrap;html=1;" parent="KkgjwcP4pRAjrubZ3zKh-17" vertex="1">
          <mxGeometry x="280" y="40" width="120" height="80" as="geometry" />
        </mxCell>
        <mxCell id="KkgjwcP4pRAjrubZ3zKh-19" style="edgeStyle=orthogonalEdgeStyle;rounded=0;orthogonalLoop=1;jettySize=auto;html=1;exitX=0;exitY=0.5;exitDx=0;exitDy=0;endArrow=none;endFill=0;" parent="1" source="KkgjwcP4pRAjrubZ3zKh-5" target="KkgjwcP4pRAjrubZ3zKh-2" edge="1">
          <mxGeometry relative="1" as="geometry" />
        </mxCell>
        <mxCell id="KkgjwcP4pRAjrubZ3zKh-20" style="edgeStyle=orthogonalEdgeStyle;rounded=0;orthogonalLoop=1;jettySize=auto;html=1;exitX=1;exitY=0.5;exitDx=0;exitDy=0;endArrow=none;endFill=0;" parent="1" source="KkgjwcP4pRAjrubZ3zKh-5" target="KkgjwcP4pRAjrubZ3zKh-6" edge="1">
          <mxGeometry relative="1" as="geometry" />
        </mxCell>
        <mxCell id="Q8fdKy0_CdC2fY2EBKg7-1" style="edgeStyle=orthogonalEdgeStyle;rounded=0;orthogonalLoop=1;jettySize=auto;html=1;exitX=1;exitY=1;exitDx=0;exitDy=0;exitPerimeter=0;entryX=0;entryY=0.5;entryDx=0;entryDy=0;endArrow=none;endFill=0;" parent="1" source="KkgjwcP4pRAjrubZ3zKh-21" target="KkgjwcP4pRAjrubZ3zKh-4" edge="1">
          <mxGeometry relative="1" as="geometry" />
        </mxCell>
        <mxCell id="KkgjwcP4pRAjrubZ3zKh-21" value="Unauthenticated User" style="shape=umlActor;verticalLabelPosition=bottom;verticalAlign=top;html=1;outlineConnect=0;" parent="1" vertex="1">
          <mxGeometry x="70" y="50" width="30" height="60" as="geometry" />
        </mxCell>
        <mxCell id="KkgjwcP4pRAjrubZ3zKh-26" style="edgeStyle=orthogonalEdgeStyle;rounded=0;orthogonalLoop=1;jettySize=auto;html=1;exitX=0;exitY=0.5;exitDx=0;exitDy=0;endArrow=none;endFill=0;" parent="1" source="KkgjwcP4pRAjrubZ3zKh-25" target="KkgjwcP4pRAjrubZ3zKh-2" edge="1">
          <mxGeometry relative="1" as="geometry" />
        </mxCell>
        <mxCell id="KkgjwcP4pRAjrubZ3zKh-28" style="edgeStyle=orthogonalEdgeStyle;rounded=0;orthogonalLoop=1;jettySize=auto;html=1;exitX=0;exitY=0.5;exitDx=0;exitDy=0;endArrow=none;endFill=0;" parent="1" source="KkgjwcP4pRAjrubZ3zKh-27" target="KkgjwcP4pRAjrubZ3zKh-2" edge="1">
          <mxGeometry relative="1" as="geometry" />
        </mxCell>
        <mxCell id="KkgjwcP4pRAjrubZ3zKh-30" style="edgeStyle=orthogonalEdgeStyle;rounded=0;orthogonalLoop=1;jettySize=auto;html=1;exitX=0.5;exitY=1;exitDx=0;exitDy=0;entryX=0.5;entryY=0;entryDx=0;entryDy=0;entryPerimeter=0;endArrow=none;endFill=0;" parent="1" source="KkgjwcP4pRAjrubZ3zKh-29" target="KkgjwcP4pRAjrubZ3zKh-6" edge="1">
          <mxGeometry relative="1" as="geometry" />
        </mxCell>
        <mxCell id="KkgjwcP4pRAjrubZ3zKh-33" style="edgeStyle=orthogonalEdgeStyle;rounded=0;orthogonalLoop=1;jettySize=auto;html=1;exitX=0;exitY=0.5;exitDx=0;exitDy=0;endArrow=none;endFill=0;" parent="1" source="KkgjwcP4pRAjrubZ3zKh-31" target="KkgjwcP4pRAjrubZ3zKh-2" edge="1">
          <mxGeometry relative="1" as="geometry" />
        </mxCell>
        <mxCell id="KkgjwcP4pRAjrubZ3zKh-34" style="edgeStyle=orthogonalEdgeStyle;rounded=0;orthogonalLoop=1;jettySize=auto;html=1;exitX=0;exitY=0.5;exitDx=0;exitDy=0;endArrow=none;endFill=0;" parent="1" source="KkgjwcP4pRAjrubZ3zKh-32" target="KkgjwcP4pRAjrubZ3zKh-2" edge="1">
          <mxGeometry relative="1" as="geometry" />
        </mxCell>
        <mxCell id="XwYupdd1ft59CAqfEfRu-1" value="Admin" style="shape=umlActor;verticalLabelPosition=bottom;verticalAlign=top;html=1;outlineConnect=0;" parent="1" vertex="1">
          <mxGeometry x="700" y="120" width="30" height="60" as="geometry" />
        </mxCell>
        <mxCell id="XwYupdd1ft59CAqfEfRu-7" style="edgeStyle=orthogonalEdgeStyle;rounded=0;orthogonalLoop=1;jettySize=auto;html=1;exitX=0.5;exitY=0;exitDx=0;exitDy=0;endArrow=none;endFill=0;" parent="1" source="KkgjwcP4pRAjrubZ3zKh-27" target="XwYupdd1ft59CAqfEfRu-1" edge="1">
          <mxGeometry relative="1" as="geometry" />
        </mxCell>
        <mxCell id="XwYupdd1ft59CAqfEfRu-8" style="edgeStyle=orthogonalEdgeStyle;rounded=0;orthogonalLoop=1;jettySize=auto;html=1;exitX=1;exitY=0.5;exitDx=0;exitDy=0;entryX=0.5;entryY=0;entryDx=0;entryDy=0;entryPerimeter=0;endArrow=none;endFill=0;" parent="1" source="XwYupdd1ft59CAqfEfRu-3" target="XwYupdd1ft59CAqfEfRu-1" edge="1">
          <mxGeometry relative="1" as="geometry" />
        </mxCell>
        <mxCell id="TwAWXcDLxxvuXH2f-po_-1" value="" style="endArrow=block;html=1;rounded=0;endFill=0;exitX=0.5;exitY=0;exitDx=0;exitDy=0;exitPerimeter=0;" edge="1" parent="1" source="KkgjwcP4pRAjrubZ3zKh-2" target="KkgjwcP4pRAjrubZ3zKh-21">
          <mxGeometry width="50" height="50" relative="1" as="geometry">
            <mxPoint x="20" y="240" as="sourcePoint" />
            <mxPoint x="50" y="160" as="targetPoint" />
          </mxGeometry>
        </mxCell>
      </root>
    </mxGraphModel>
  </diagram>
</mxfile>
